<?xml version="1.0" encoding="UTF-8"?>
<svg xmlns="http://www.w3.org/2000/svg" xmlns:xlink="http://www.w3.org/1999/xlink" width="75pt" height="74.999997pt" viewBox="0 0 75 74.999997" version="1.2">
<defs>
<clipPath id="clip1">
  <path d="M 22.5 21.273438 L 52.5 21.273438 L 52.5 51.273438 L 22.5 51.273438 Z M 22.5 21.273438 "/>
</clipPath>
</defs>
<g id="surface1">
<g clip-path="url(#clip1)" clip-rule="nonzero">
<path style="fill:none;stroke-width:120;stroke-linecap:butt;stroke-linejoin:miter;stroke:rgb(0%,39.99939%,100%);stroke-opacity:1;stroke-miterlimit:4;" d="M 549.055132 -669.859725 L 1459.644953 -669.859725 C 1476.321686 -669.859725 1492.998419 -668.252329 1509.675152 -665.037537 C 1526.150961 -661.822745 1542.023996 -656.799633 1557.696107 -650.370049 C 1573.167294 -643.940465 1588.035706 -636.10441 1601.899497 -626.861883 C 1615.964211 -617.418431 1628.823379 -606.769433 1640.878849 -594.914888 C 1652.733394 -583.060342 1663.382393 -570.00025 1672.62492 -556.13646 C 1682.068371 -542.071745 1689.904426 -527.203332 1696.33401 -511.732146 C 1702.763594 -496.26096 1707.585782 -480.187 1711.001499 -463.711191 C 1714.21629 -447.235382 1715.823686 -430.558649 1715.823686 -413.680991 L 1715.823686 496.908829 C 1715.823686 513.585563 1714.21629 530.262296 1711.001499 546.738105 C 1707.585782 563.414838 1702.763594 579.287873 1696.33401 594.959984 C 1689.904426 610.43117 1682.068371 625.299583 1672.62492 639.163373 C 1663.382393 653.228088 1652.733394 666.087256 1640.878849 678.142726 C 1628.823379 689.997271 1615.964211 700.646269 1601.899497 709.888796 C 1588.035706 719.332248 1573.167294 727.168303 1557.696107 733.597887 C 1542.023996 740.027471 1526.150961 744.849659 1509.675152 748.265375 C 1492.998419 751.480167 1476.321686 753.087563 1459.644953 753.087563 L 549.055132 753.087563 C 532.177474 753.087563 515.701665 751.480167 499.024932 748.265375 C 482.549123 744.849659 466.475164 740.027471 451.003977 733.597887 C 435.532791 727.168303 420.664378 719.332248 406.800588 709.888796 C 392.735873 700.646269 379.675781 689.997271 367.821235 678.142726 C 355.96669 666.087256 345.317692 653.228088 336.075165 639.163373 C 326.631714 625.299583 318.795658 610.43117 312.366074 594.959984 C 305.93649 579.287873 300.913378 563.414838 297.698586 546.738105 C 294.483794 530.262296 292.876398 513.585563 292.876398 496.908829 L 292.876398 -413.680991 C 292.876398 -430.558649 294.483794 -447.235382 297.698586 -463.711191 C 300.913378 -480.187 305.93649 -496.26096 312.366074 -511.732146 C 318.795658 -527.203332 326.631714 -542.071745 336.075165 -556.13646 C 345.317692 -570.00025 355.96669 -583.060342 367.821235 -594.914888 C 379.675781 -606.769433 392.735873 -617.418431 406.800588 -626.861883 C 420.664378 -636.10441 435.532791 -643.940465 451.003977 -650.370049 C 466.475164 -656.799633 482.549123 -661.822745 499.024932 -665.037537 C 515.701665 -668.252329 532.177474 -669.859725 549.055132 -669.859725 Z M 549.055132 -669.859725 " transform="matrix(0.0194414,0,0,0.0194414,17.974047,35.464405)"/>
</g>
<path style="fill:none;stroke-width:120;stroke-linecap:butt;stroke-linejoin:bevel;stroke:rgb(0%,39.99939%,100%);stroke-opacity:1;stroke-miterlimit:4;" d="M 1389.522303 41.613919 C 1389.522303 66.930406 1387.111209 91.845043 1382.088097 116.759681 C 1377.265909 141.473394 1369.831702 165.584334 1360.187327 189.0925 C 1350.542951 212.399742 1338.688405 234.702361 1324.623691 255.598508 C 1310.558976 276.695581 1294.685941 296.185257 1276.80366 314.067537 C 1258.92138 331.949817 1239.431704 347.822853 1218.334632 361.887567 C 1197.237559 375.952282 1175.135865 387.806827 1151.828623 397.451203 C 1128.320457 407.296504 1104.209517 414.529786 1079.495804 419.552898 C 1054.581167 424.375086 1029.666529 426.78618 1004.350042 426.78618 C 979.033556 426.78618 953.917993 424.375086 929.20428 419.552898 C 904.289643 414.529786 880.178703 407.296504 856.871461 397.451203 C 833.56422 387.806827 811.261601 375.952282 790.164528 361.887567 C 769.268381 347.822853 749.778704 331.949817 731.896424 314.067537 C 714.014144 296.185257 697.940184 276.695581 683.875469 255.598508 C 669.810755 234.702361 657.956209 212.399742 648.311833 189.0925 C 638.667458 165.584334 631.434176 141.473394 626.411063 116.759681 C 621.588875 91.845043 618.976857 66.930406 618.976857 41.613919 C 618.976857 16.297432 621.588875 -8.81813 626.411063 -33.531843 C 631.434176 -58.446481 638.667458 -82.55742 648.311833 -105.864662 C 657.956209 -129.171904 669.810755 -151.474523 683.875469 -172.37067 C 697.940184 -193.467743 714.014144 -212.957419 731.896424 -230.839699 C 749.778704 -248.721979 769.268381 -264.595015 790.164528 -278.659729 C 811.261601 -292.724444 833.56422 -304.578989 856.871461 -314.42429 C 880.178703 -324.068666 904.289643 -331.301948 929.20428 -336.32506 C 953.917993 -341.147248 979.033556 -343.759266 1004.350042 -343.759266 C 1029.666529 -343.759266 1054.581167 -341.147248 1079.495804 -336.32506 C 1104.209517 -331.301948 1128.320457 -324.068666 1151.828623 -314.42429 C 1175.135865 -304.578989 1197.237559 -292.724444 1218.334632 -278.659729 C 1239.431704 -264.595015 1258.92138 -248.721979 1276.80366 -230.839699 C 1294.685941 -212.957419 1310.558976 -193.467743 1324.623691 -172.37067 C 1338.688405 -151.474523 1350.542951 -129.171904 1360.187327 -105.864662 C 1369.831702 -82.55742 1377.265909 -58.446481 1382.088097 -33.531843 C 1387.111209 -8.81813 1389.522303 16.297432 1389.522303 41.613919 Z M 1389.522303 41.613919 " transform="matrix(0.0194414,0,0,0.0194414,17.974047,35.464405)"/>
<path style=" stroke:none;fill-rule:nonzero;fill:rgb(0%,29.019165%,67.83905%);fill-opacity:1;" d="M 47.71875 27.785156 C 47.71875 28.011719 47.675781 28.226562 47.589844 28.4375 C 47.503906 28.644531 47.382812 28.828125 47.222656 28.988281 C 47.0625 29.148438 46.878906 29.269531 46.671875 29.355469 C 46.460938 29.441406 46.246094 29.484375 46.019531 29.484375 C 45.792969 29.484375 45.578125 29.441406 45.371094 29.355469 C 45.160156 29.269531 44.976562 29.148438 44.816406 28.988281 C 44.660156 28.828125 44.535156 28.644531 44.449219 28.4375 C 44.363281 28.226562 44.320312 28.011719 44.320312 27.785156 C 44.320312 27.5625 44.363281 27.34375 44.449219 27.136719 C 44.535156 26.925781 44.660156 26.742188 44.816406 26.585938 C 44.976562 26.425781 45.160156 26.300781 45.371094 26.214844 C 45.578125 26.128906 45.792969 26.085938 46.019531 26.085938 C 46.246094 26.085938 46.460938 26.128906 46.671875 26.214844 C 46.878906 26.300781 47.0625 26.425781 47.222656 26.585938 C 47.382812 26.742188 47.503906 26.925781 47.589844 27.136719 C 47.675781 27.34375 47.71875 27.5625 47.71875 27.785156 Z M 47.71875 27.785156 "/>
</g>
</svg>
